<svg width="155" height="33" viewBox="0 0 155 33" fill="none" xmlns="http://www.w3.org/2000/svg">
<mask id="path-1-outside-1_7_10" maskUnits="userSpaceOnUse" x="0" y="0" width="155" height="33" fill="black">
<rect fill="white" width="155" height="33"/>
<path d="M13.3242 29.099C13.3242 29.572 12.1454 29.8085 9.78769 29.8085C7.43002 29.8085 6.25118 29.572 6.25118 29.099L1.9645 21.2954L6.25118 11.2927H1.9645C1.55965 11.2927 1.27387 10.7488 1.10717 9.66101C1.03572 9.14077 1 8.6087 1 8.06482C1 7.52093 1.03572 6.98887 1.10717 6.46863C1.27387 5.38085 1.55965 4.83697 1.9645 4.83697H17.5037C17.9086 4.83697 18.1943 5.38085 18.3611 6.46863C18.4325 6.98887 18.4682 7.52093 18.4682 8.06482C18.4682 8.6087 18.4325 9.14077 18.3611 9.66101C18.1943 10.7488 17.9086 11.2927 17.5037 11.2927H13.3242V29.099Z"/>
<path d="M22.8604 23.5656V14.4113L20.3241 10.938C19.9193 10.938 19.6335 10.4295 19.4668 9.41271C19.3953 8.91612 19.3596 8.4077 19.3596 7.88746C19.3596 7.36722 19.3953 6.85881 19.4668 6.36222C19.6335 5.34538 19.9193 4.83697 20.3241 4.83697H32.3268C32.7317 4.83697 33.0055 5.34538 33.1484 6.36222C33.2437 6.85881 33.2913 7.36722 33.2913 7.88746C33.2913 8.4077 33.2437 8.91612 33.1484 9.41271C33.0055 10.4295 32.7317 10.938 32.3268 10.938L29.9334 14.4113V17.3227V21.5792L32.434 23.5656C32.8388 23.5656 33.1246 24.074 33.2913 25.0908C33.3866 25.5874 33.4342 26.0958 33.4342 26.6161C33.4342 27.1363 33.3866 27.6447 33.2913 28.1413C33.1246 29.1582 32.8388 29.6666 32.434 29.6666H20.3955C19.9907 29.6666 19.7168 29.1582 19.5739 28.1413C19.4787 27.6447 19.431 27.1363 19.431 26.6161C19.431 26.0958 19.4787 25.5874 19.5739 25.0908C19.7168 24.074 22.4555 21.2954 22.8604 21.2954V23.5656Z"/>
<path d="M60.8229 29.702C58.7034 29.702 57.6436 29.4656 57.6436 28.9926L55.6427 21.8275L52.5353 29.17C52.4401 29.4537 51.7375 28.1413 50.2134 28.1413C48.6892 28.1413 47.7962 29.4656 47.7485 29.2054L44.1406 22.7143L42.7474 28.7798C42.7236 29.1345 42.2711 29.3828 41.39 29.5247C40.5088 29.6429 39.7705 29.702 39.1752 29.702C38.6036 29.702 38.044 29.6666 37.4962 29.5956C36.3531 29.4301 35.7935 29.1345 35.8173 28.7089L36.6389 5.6528C36.6389 5.08526 38.0916 4.8015 40.997 4.8015C41.8543 4.8015 42.9022 4.87244 44.1406 5.01432C45.3789 5.13256 47.6056 9.03435 47.7485 9.41271L50.2134 16.9325L52.5353 9.66101C52.7497 9.04618 55.5717 4.8015 58.6438 4.8015C59.525 4.8015 60.5728 4.87244 61.7874 5.01432C63.0258 5.13256 63.645 5.35721 63.645 5.68827L64.6809 28.9571C64.6809 29.2173 64.2165 29.4065 63.2877 29.5247C62.359 29.6429 61.5373 29.702 60.8229 29.702Z"/>
<path d="M70.5832 23.5656V10.938H68.0469C67.6421 10.938 67.3563 10.4295 67.1896 9.41271C67.1181 8.91612 67.0824 8.4077 67.0824 7.88746C67.0824 7.36722 67.1181 6.85881 67.1896 6.36222C67.3563 5.34538 73.538 1 73.9429 1L80.0496 4.83697C80.4545 4.83697 80.7283 5.34538 80.8712 6.36222C80.9665 6.85881 81.0141 7.36722 81.0141 7.88746C81.0141 8.4077 80.9665 8.91612 80.8712 9.41271C80.7283 10.4295 80.4545 10.938 80.0496 10.938H77.6562V23.5656H80.1568C80.5616 23.5656 80.8474 24.074 81.0141 25.0908C81.1094 25.5874 81.157 26.0958 81.157 26.6161C81.157 27.1363 81.1094 27.6447 81.0141 28.1413C80.8474 29.1582 80.5616 29.6666 80.1568 29.6666L73.9429 32C73.538 32 67.4396 29.1582 67.2967 28.1413C67.2015 27.6447 67.1538 27.1363 67.1538 26.6161C67.1538 26.0958 67.2015 25.5874 67.2967 25.0908C67.4396 24.074 67.7135 23.5656 68.1183 23.5656H70.5832Z"/>
<path d="M103.116 28.8862C103.116 29.3828 101.997 29.6311 99.758 29.6311C97.5194 29.6311 96.3048 29.4537 96.1143 29.099L90.1487 25.0908V29.0636C90.1487 29.4892 89.0413 29.702 86.8265 29.702C84.6356 29.702 83.5401 29.4892 83.5401 29.0636V5.33356C83.5401 4.97885 84.4808 4.8015 86.3621 4.8015C87.1004 4.8015 87.9577 4.87244 88.9341 5.01432C89.9344 5.13256 90.5416 5.36903 90.756 5.72374L96.4716 18.5887V5.51091C96.4716 5.06162 97.5789 4.83697 99.7937 4.83697C102.009 4.83697 103.116 5.06162 103.116 5.51091V28.8862Z"/>
<path d="M117.313 30.0213C113.979 30.0213 111.252 28.9335 109.133 26.758C107.037 24.5824 105.989 21.4137 105.989 17.2518C105.989 13.0662 107.049 9.89748 109.169 7.74558C111.312 5.59368 114.063 4.51773 117.42 4.51773C120.802 4.51773 123.529 5.58186 125.601 7.71011C127.673 9.81471 128.709 13.0189 128.709 17.3227C128.709 21.6029 127.649 24.7952 125.529 26.8998C123.41 28.9808 120.671 30.0213 117.313 30.0213ZM117.349 11.3281C116.206 11.3281 115.241 11.8484 114.456 12.8889C113.693 13.9293 115.956 15.4309 115.956 17.3227C115.956 19.1908 113.682 20.5979 114.42 21.6147C115.158 22.6079 116.123 23.1045 117.313 23.1045C118.528 23.1045 119.504 22.596 120.243 21.5792C121.005 20.5624 119.049 19.2145 119.049 17.3227C119.049 15.4309 120.993 13.8702 120.207 12.8534C119.445 11.8366 118.492 11.3281 117.349 11.3281Z"/>
<path d="M143.258 5.54639C143.258 5.07344 144.544 4.83697 147.116 4.83697C149.712 4.83697 151.01 5.07344 151.01 5.54639V21.8275C151.01 24.2395 155.326 27.1718 153.587 28.7089C151.849 30.2223 144.258 30.0213 141.186 30.0213C138.138 30.0213 135.649 29.2409 133.72 27.6802C131.815 26.0958 130.862 23.9676 130.862 21.2954V5.58186C130.862 5.10891 132.148 4.87244 134.72 4.87244C137.316 4.87244 138.614 5.10891 138.614 5.58186V21.5792C138.614 22.0522 138.864 22.4305 139.364 22.7143C139.888 22.998 140.436 23.1399 141.008 23.1399C141.579 23.1399 142.091 23.0099 142.544 22.7498C143.02 22.4896 143.258 22.0995 143.258 21.5792V5.54639Z"/>
</mask>
<path d="M13.3242 29.099C13.3242 29.572 12.1454 29.8085 9.78769 29.8085C7.43002 29.8085 6.25118 29.572 6.25118 29.099L1.9645 21.2954L6.25118 11.2927H1.9645C1.55965 11.2927 1.27387 10.7488 1.10717 9.66101C1.03572 9.14077 1 8.6087 1 8.06482C1 7.52093 1.03572 6.98887 1.10717 6.46863C1.27387 5.38085 1.55965 4.83697 1.9645 4.83697H17.5037C17.9086 4.83697 18.1943 5.38085 18.3611 6.46863C18.4325 6.98887 18.4682 7.52093 18.4682 8.06482C18.4682 8.6087 18.4325 9.14077 18.3611 9.66101C18.1943 10.7488 17.9086 11.2927 17.5037 11.2927H13.3242V29.099Z" fill="#C678DD"/>
<path d="M22.8604 23.5656V14.4113L20.3241 10.938C19.9193 10.938 19.6335 10.4295 19.4668 9.41271C19.3953 8.91612 19.3596 8.4077 19.3596 7.88746C19.3596 7.36722 19.3953 6.85881 19.4668 6.36222C19.6335 5.34538 19.9193 4.83697 20.3241 4.83697H32.3268C32.7317 4.83697 33.0055 5.34538 33.1484 6.36222C33.2437 6.85881 33.2913 7.36722 33.2913 7.88746C33.2913 8.4077 33.2437 8.91612 33.1484 9.41271C33.0055 10.4295 32.7317 10.938 32.3268 10.938L29.9334 14.4113V17.3227V21.5792L32.434 23.5656C32.8388 23.5656 33.1246 24.074 33.2913 25.0908C33.3866 25.5874 33.4342 26.0958 33.4342 26.6161C33.4342 27.1363 33.3866 27.6447 33.2913 28.1413C33.1246 29.1582 32.8388 29.6666 32.434 29.6666H20.3955C19.9907 29.6666 19.7168 29.1582 19.5739 28.1413C19.4787 27.6447 19.431 27.1363 19.431 26.6161C19.431 26.0958 19.4787 25.5874 19.5739 25.0908C19.7168 24.074 22.4555 21.2954 22.8604 21.2954V23.5656Z" fill="#C678DD"/>
<path d="M60.8229 29.702C58.7034 29.702 57.6436 29.4656 57.6436 28.9926L55.6427 21.8275L52.5353 29.17C52.4401 29.4537 51.7375 28.1413 50.2134 28.1413C48.6892 28.1413 47.7962 29.4656 47.7485 29.2054L44.1406 22.7143L42.7474 28.7798C42.7236 29.1345 42.2711 29.3828 41.39 29.5247C40.5088 29.6429 39.7705 29.702 39.1752 29.702C38.6036 29.702 38.044 29.6666 37.4962 29.5956C36.3531 29.4301 35.7935 29.1345 35.8173 28.7089L36.6389 5.6528C36.6389 5.08526 38.0916 4.8015 40.997 4.8015C41.8543 4.8015 42.9022 4.87244 44.1406 5.01432C45.3789 5.13256 47.6056 9.03435 47.7485 9.41271L50.2134 16.9325L52.5353 9.66101C52.7497 9.04618 55.5717 4.8015 58.6438 4.8015C59.525 4.8015 60.5728 4.87244 61.7874 5.01432C63.0258 5.13256 63.645 5.35721 63.645 5.68827L64.6809 28.9571C64.6809 29.2173 64.2165 29.4065 63.2877 29.5247C62.359 29.6429 61.5373 29.702 60.8229 29.702Z" fill="#C678DD"/>
<path d="M70.5832 23.5656V10.938H68.0469C67.6421 10.938 67.3563 10.4295 67.1896 9.41271C67.1181 8.91612 67.0824 8.4077 67.0824 7.88746C67.0824 7.36722 67.1181 6.85881 67.1896 6.36222C67.3563 5.34538 73.538 1 73.9429 1L80.0496 4.83697C80.4545 4.83697 80.7283 5.34538 80.8712 6.36222C80.9665 6.85881 81.0141 7.36722 81.0141 7.88746C81.0141 8.4077 80.9665 8.91612 80.8712 9.41271C80.7283 10.4295 80.4545 10.938 80.0496 10.938H77.6562V23.5656H80.1568C80.5616 23.5656 80.8474 24.074 81.0141 25.0908C81.1094 25.5874 81.157 26.0958 81.157 26.6161C81.157 27.1363 81.1094 27.6447 81.0141 28.1413C80.8474 29.1582 80.5616 29.6666 80.1568 29.6666L73.9429 32C73.538 32 67.4396 29.1582 67.2967 28.1413C67.2015 27.6447 67.1538 27.1363 67.1538 26.6161C67.1538 26.0958 67.2015 25.5874 67.2967 25.0908C67.4396 24.074 67.7135 23.5656 68.1183 23.5656H70.5832Z" fill="#C678DD"/>
<path d="M103.116 28.8862C103.116 29.3828 101.997 29.6311 99.758 29.6311C97.5194 29.6311 96.3048 29.4537 96.1143 29.099L90.1487 25.0908V29.0636C90.1487 29.4892 89.0413 29.702 86.8265 29.702C84.6356 29.702 83.5401 29.4892 83.5401 29.0636V5.33356C83.5401 4.97885 84.4808 4.8015 86.3621 4.8015C87.1004 4.8015 87.9577 4.87244 88.9341 5.01432C89.9344 5.13256 90.5416 5.36903 90.756 5.72374L96.4716 18.5887V5.51091C96.4716 5.06162 97.5789 4.83697 99.7937 4.83697C102.009 4.83697 103.116 5.06162 103.116 5.51091V28.8862Z" fill="#C678DD"/>
<path d="M117.313 30.0213C113.979 30.0213 111.252 28.9335 109.133 26.758C107.037 24.5824 105.989 21.4137 105.989 17.2518C105.989 13.0662 107.049 9.89748 109.169 7.74558C111.312 5.59368 114.063 4.51773 117.42 4.51773C120.802 4.51773 123.529 5.58186 125.601 7.71011C127.673 9.81471 128.709 13.0189 128.709 17.3227C128.709 21.6029 127.649 24.7952 125.529 26.8998C123.41 28.9808 120.671 30.0213 117.313 30.0213ZM117.349 11.3281C116.206 11.3281 115.241 11.8484 114.456 12.8889C113.693 13.9293 115.956 15.4309 115.956 17.3227C115.956 19.1908 113.682 20.5979 114.42 21.6147C115.158 22.6079 116.123 23.1045 117.313 23.1045C118.528 23.1045 119.504 22.596 120.243 21.5792C121.005 20.5624 119.049 19.2145 119.049 17.3227C119.049 15.4309 120.993 13.8702 120.207 12.8534C119.445 11.8366 118.492 11.3281 117.349 11.3281Z" fill="#C678DD"/>
<path d="M143.258 5.54639C143.258 5.07344 144.544 4.83697 147.116 4.83697C149.712 4.83697 151.01 5.07344 151.01 5.54639V21.8275C151.01 24.2395 155.326 27.1718 153.587 28.7089C151.849 30.2223 144.258 30.0213 141.186 30.0213C138.138 30.0213 135.649 29.2409 133.72 27.6802C131.815 26.0958 130.862 23.9676 130.862 21.2954V5.58186C130.862 5.10891 132.148 4.87244 134.72 4.87244C137.316 4.87244 138.614 5.10891 138.614 5.58186V21.5792C138.614 22.0522 138.864 22.4305 139.364 22.7143C139.888 22.998 140.436 23.1399 141.008 23.1399C141.579 23.1399 142.091 23.0099 142.544 22.7498C143.02 22.4896 143.258 22.0995 143.258 21.5792V5.54639Z" fill="#C678DD"/>
<path d="M13.3242 29.099C13.3242 29.572 12.1454 29.8085 9.78769 29.8085C7.43002 29.8085 6.25118 29.572 6.25118 29.099L1.9645 21.2954L6.25118 11.2927H1.9645C1.55965 11.2927 1.27387 10.7488 1.10717 9.66101C1.03572 9.14077 1 8.6087 1 8.06482C1 7.52093 1.03572 6.98887 1.10717 6.46863C1.27387 5.38085 1.55965 4.83697 1.9645 4.83697H17.5037C17.9086 4.83697 18.1943 5.38085 18.3611 6.46863C18.4325 6.98887 18.4682 7.52093 18.4682 8.06482C18.4682 8.6087 18.4325 9.14077 18.3611 9.66101C18.1943 10.7488 17.9086 11.2927 17.5037 11.2927H13.3242V29.099Z" stroke="black" stroke-width="2" mask="url(#path-1-outside-1_7_10)"/>
<path d="M22.8604 23.5656V14.4113L20.3241 10.938C19.9193 10.938 19.6335 10.4295 19.4668 9.41271C19.3953 8.91612 19.3596 8.4077 19.3596 7.88746C19.3596 7.36722 19.3953 6.85881 19.4668 6.36222C19.6335 5.34538 19.9193 4.83697 20.3241 4.83697H32.3268C32.7317 4.83697 33.0055 5.34538 33.1484 6.36222C33.2437 6.85881 33.2913 7.36722 33.2913 7.88746C33.2913 8.4077 33.2437 8.91612 33.1484 9.41271C33.0055 10.4295 32.7317 10.938 32.3268 10.938L29.9334 14.4113V17.3227V21.5792L32.434 23.5656C32.8388 23.5656 33.1246 24.074 33.2913 25.0908C33.3866 25.5874 33.4342 26.0958 33.4342 26.6161C33.4342 27.1363 33.3866 27.6447 33.2913 28.1413C33.1246 29.1582 32.8388 29.6666 32.434 29.6666H20.3955C19.9907 29.6666 19.7168 29.1582 19.5739 28.1413C19.4787 27.6447 19.431 27.1363 19.431 26.6161C19.431 26.0958 19.4787 25.5874 19.5739 25.0908C19.7168 24.074 22.4555 21.2954 22.8604 21.2954V23.5656Z" stroke="black" stroke-width="2" mask="url(#path-1-outside-1_7_10)"/>
<path d="M60.8229 29.702C58.7034 29.702 57.6436 29.4656 57.6436 28.9926L55.6427 21.8275L52.5353 29.17C52.4401 29.4537 51.7375 28.1413 50.2134 28.1413C48.6892 28.1413 47.7962 29.4656 47.7485 29.2054L44.1406 22.7143L42.7474 28.7798C42.7236 29.1345 42.2711 29.3828 41.39 29.5247C40.5088 29.6429 39.7705 29.702 39.1752 29.702C38.6036 29.702 38.044 29.6666 37.4962 29.5956C36.3531 29.4301 35.7935 29.1345 35.8173 28.7089L36.6389 5.6528C36.6389 5.08526 38.0916 4.8015 40.997 4.8015C41.8543 4.8015 42.9022 4.87244 44.1406 5.01432C45.3789 5.13256 47.6056 9.03435 47.7485 9.41271L50.2134 16.9325L52.5353 9.66101C52.7497 9.04618 55.5717 4.8015 58.6438 4.8015C59.525 4.8015 60.5728 4.87244 61.7874 5.01432C63.0258 5.13256 63.645 5.35721 63.645 5.68827L64.6809 28.9571C64.6809 29.2173 64.2165 29.4065 63.2877 29.5247C62.359 29.6429 61.5373 29.702 60.8229 29.702Z" stroke="black" stroke-width="2" mask="url(#path-1-outside-1_7_10)"/>
<path d="M70.5832 23.5656V10.938H68.0469C67.6421 10.938 67.3563 10.4295 67.1896 9.41271C67.1181 8.91612 67.0824 8.4077 67.0824 7.88746C67.0824 7.36722 67.1181 6.85881 67.1896 6.36222C67.3563 5.34538 73.538 1 73.9429 1L80.0496 4.83697C80.4545 4.83697 80.7283 5.34538 80.8712 6.36222C80.9665 6.85881 81.0141 7.36722 81.0141 7.88746C81.0141 8.4077 80.9665 8.91612 80.8712 9.41271C80.7283 10.4295 80.4545 10.938 80.0496 10.938H77.6562V23.5656H80.1568C80.5616 23.5656 80.8474 24.074 81.0141 25.0908C81.1094 25.5874 81.157 26.0958 81.157 26.6161C81.157 27.1363 81.1094 27.6447 81.0141 28.1413C80.8474 29.1582 80.5616 29.6666 80.1568 29.6666L73.9429 32C73.538 32 67.4396 29.1582 67.2967 28.1413C67.2015 27.6447 67.1538 27.1363 67.1538 26.6161C67.1538 26.0958 67.2015 25.5874 67.2967 25.0908C67.4396 24.074 67.7135 23.5656 68.1183 23.5656H70.5832Z" stroke="black" stroke-width="2" mask="url(#path-1-outside-1_7_10)"/>
<path d="M103.116 28.8862C103.116 29.3828 101.997 29.6311 99.758 29.6311C97.5194 29.6311 96.3048 29.4537 96.1143 29.099L90.1487 25.0908V29.0636C90.1487 29.4892 89.0413 29.702 86.8265 29.702C84.6356 29.702 83.5401 29.4892 83.5401 29.0636V5.33356C83.5401 4.97885 84.4808 4.8015 86.3621 4.8015C87.1004 4.8015 87.9577 4.87244 88.9341 5.01432C89.9344 5.13256 90.5416 5.36903 90.756 5.72374L96.4716 18.5887V5.51091C96.4716 5.06162 97.5789 4.83697 99.7937 4.83697C102.009 4.83697 103.116 5.06162 103.116 5.51091V28.8862Z" stroke="black" stroke-width="2" mask="url(#path-1-outside-1_7_10)"/>
<path d="M117.313 30.0213C113.979 30.0213 111.252 28.9335 109.133 26.758C107.037 24.5824 105.989 21.4137 105.989 17.2518C105.989 13.0662 107.049 9.89748 109.169 7.74558C111.312 5.59368 114.063 4.51773 117.42 4.51773C120.802 4.51773 123.529 5.58186 125.601 7.71011C127.673 9.81471 128.709 13.0189 128.709 17.3227C128.709 21.6029 127.649 24.7952 125.529 26.8998C123.41 28.9808 120.671 30.0213 117.313 30.0213ZM117.349 11.3281C116.206 11.3281 115.241 11.8484 114.456 12.8889C113.693 13.9293 115.956 15.4309 115.956 17.3227C115.956 19.1908 113.682 20.5979 114.42 21.6147C115.158 22.6079 116.123 23.1045 117.313 23.1045C118.528 23.1045 119.504 22.596 120.243 21.5792C121.005 20.5624 119.049 19.2145 119.049 17.3227C119.049 15.4309 120.993 13.8702 120.207 12.8534C119.445 11.8366 118.492 11.3281 117.349 11.3281Z" stroke="black" stroke-width="2" mask="url(#path-1-outside-1_7_10)"/>
<path d="M143.258 5.54639C143.258 5.07344 144.544 4.83697 147.116 4.83697C149.712 4.83697 151.01 5.07344 151.01 5.54639V21.8275C151.01 24.2395 155.326 27.1718 153.587 28.7089C151.849 30.2223 144.258 30.0213 141.186 30.0213C138.138 30.0213 135.649 29.2409 133.72 27.6802C131.815 26.0958 130.862 23.9676 130.862 21.2954V5.58186C130.862 5.10891 132.148 4.87244 134.72 4.87244C137.316 4.87244 138.614 5.10891 138.614 5.58186V21.5792C138.614 22.0522 138.864 22.4305 139.364 22.7143C139.888 22.998 140.436 23.1399 141.008 23.1399C141.579 23.1399 142.091 23.0099 142.544 22.7498C143.02 22.4896 143.258 22.0995 143.258 21.5792V5.54639Z" stroke="black" stroke-width="2" mask="url(#path-1-outside-1_7_10)"/>
</svg>
